<?xml version="1.0" encoding="UTF-8"?>
<svg width="40px" height="40px" viewBox="0 0 40 40" version="1.1" xmlns="http://www.w3.org/2000/svg" xmlns:xlink="http://www.w3.org/1999/xlink">
    <!-- Generator: Sketch 57.1 (83088) - https://sketch.com -->
    <title>ico_aut</title>
    <desc>Created with Sketch.</desc>
    <g id="Page-1" stroke="none" stroke-width="1" fill="none" fill-rule="evenodd">
        <g id="11" transform="translate(-101.000000, -557.000000)" fill="#FFFFFF">
            <g id="ico_aut" transform="translate(101.000000, 557.000000)">
                <path d="M33.4639454,5.73805474 C29.7698255,2.04393482 24.8601228,0 19.6009998,0 C14.3418769,0 9.43217422,2.04397828 5.7380543,5.73805474 C2.04393482,9.4321312 0,14.3418773 0,19.6010003 C0,24.8601232 2.04228333,29.7698259 5.73631589,33.4639458 C9.43213076,37.1580662 14.3418769,39.202001 19.6009998,39.202001 C24.8601228,39.202001 29.7698255,37.1597177 33.4639454,33.4656842 C37.1580653,29.7698694 39.2020001,24.8601232 39.2020001,19.6010003 C39.2020001,14.3418773 37.1580219,9.43217466 33.4639454,5.73805474 Z M19.6009998,37.593101 C9.69163182,37.593101 1.60933335,29.5103683 1.60933335,19.6014349 C1.60933335,9.69250146 9.69206642,1.60976708 19.6009998,1.60976708 C29.5099333,1.60976708 37.5926677,9.69423987 37.5926677,19.6014349 C37.5926677,29.5108029 29.5099333,37.593101 19.6009998,37.593101 Z" id="Fill-1"></path>
                <path d="M4.38991783,16.472298 C4.34577962,16.951056 4.7379387,17.3415027 5.21496692,17.3415027 L13.2107808,17.3415027 C13.5146635,17.3415027 13.8185288,17.1683397 13.9492571,16.8627448 C14.9916074,14.689733 17.2087747,13.2551976 19.643417,13.2551976 C22.0778855,13.2551976 24.2932275,14.689733 25.3375769,16.8627448 C25.4682966,17.1666274 25.7721793,17.3415027 26.0760532,17.3415027 L34.0718672,17.3415027 C34.7237707,17.3415027 34.9410718,16.7337548 34.8544991,16.3415696 C34.1160227,12.9089065 32.246885,9.77820504 29.5084556,7.5630369 C26.727696,5.30345239 23.2510511,4.04206255 19.643417,4.04206255 C16.0358699,4.04206255 12.5589642,5.30171399 9.77837845,7.5630369 C5.12856798,11.3878852 4.3901786,16.4280555 4.3901786,16.4723849 L4.38991783,16.472298 Z M19.6009998,5.6937253 C25.816248,5.6937253 31.2487772,9.86660316 32.9871866,15.7339086 L26.5107425,15.7339086 C25.1203627,13.257023 22.468593,11.649342 19.6014345,11.649342 C16.7323636,11.649342 14.0824193,13.2146058 12.6921264,15.7339086 L6.21568228,15.7339086 C7.95409165,9.866777 13.3866209,5.6937253 19.6018691,5.6937253 L19.6009998,5.6937253 Z" id="Fill-2"></path>
                <path d="M16.9068999,25.2951602 C15.6030929,24.6874123 14.516587,23.6009064 13.9088391,22.2970994 C13.7781194,21.9932167 13.4742368,21.8183414 13.1703628,21.8183414 L5.1728105,21.8183414 C4.91137111,21.8183414 4.69405255,21.9490611 4.52090698,22.1222241 C4.34774402,22.295387 4.30360581,22.5568264 4.34774402,22.8182832 C5.6498561,28.8144917 10.3878474,33.5525265 16.3857943,34.8124387 C16.4299325,34.8124387 16.7762585,34.8990201 17.0818534,34.6392757 C17.2550164,34.4661128 17.3857361,34.2488116 17.3857361,33.9873722 L17.3840368,26.0337147 C17.3840368,25.7298321 17.1667356,25.4242718 16.9069738,25.2952384 L16.9068999,25.2951602 Z M15.7338213,32.9871871 C11.1704967,31.68338 7.56286262,28.075746 6.21689917,23.4702649 L12.6494484,23.4702649 C13.3455076,24.774072 14.4320134,25.8164222 15.6916649,26.5124813 L15.6899656,32.9871871 L15.7338213,32.9871871 Z" id="Fill-3"></path>
                <path d="M23.4680915,19.6010003 C23.4680915,17.4721442 21.7296821,15.7337348 19.600826,15.7337348 C17.4719699,15.7337348 15.7335605,17.4721442 15.7335605,19.6010003 C15.7335605,21.7298564 17.4719699,23.4682658 19.600826,23.4682658 C21.7296821,23.4682658 23.4680915,21.7298564 23.4680915,19.6010003 Z M19.600826,21.8181676 C18.3835918,21.8181676 17.3836587,20.8182345 17.3836587,19.6010003 C17.3836587,18.383766 18.3835918,17.383833 19.600826,17.383833 C20.8180603,17.383833 21.8179933,18.383766 21.8179933,19.6010003 C21.8179933,20.8182345 20.8180603,21.8181676 19.600826,21.8181676 Z" id="Fill-4"></path>
                <path d="M34.029363,21.8182241 L26.0335491,21.8182241 C25.7296665,21.8182241 25.4258012,21.9915044 25.2950728,22.2970994 C24.6873249,23.6009064 23.6008191,24.6874123 22.297012,25.2951602 C21.9931294,25.4258799 21.8182541,25.7297625 21.8182541,26.0336365 L21.8182541,34.0294504 C21.8182541,34.2908898 21.9489738,34.5082083 22.1221367,34.6813539 C22.3835761,34.8986551 22.7298847,34.8545169 22.8181958,34.8545169 C28.8144044,33.5524048 33.5524391,28.8144135 34.8123513,22.8164666 C34.8564895,22.5550272 34.8123513,22.3377086 34.6391884,22.1204075 C34.4643305,21.9048056 34.2470293,21.8182241 34.0297455,21.8182241 L34.029363,21.8182241 Z M23.4680915,32.9871871 L23.4680915,26.5107429 C24.7718985,25.8146838 25.8142488,24.728178 26.5103079,23.4685265 L32.9428572,23.4685265 C31.6390502,28.0318511 28.0314161,31.6394852 23.4680915,32.9871871 Z" id="Fill-5"></path>
            </g>
        </g>
    </g>
</svg>