<?xml version="1.0" encoding="UTF-8"?>
<svg width="26px" height="37px" viewBox="0 0 26 37" version="1.1" xmlns="http://www.w3.org/2000/svg" xmlns:xlink="http://www.w3.org/1999/xlink">
    <!-- Generator: Sketch 57.1 (83088) - https://sketch.com -->
    <title>Fill 1</title>
    <desc>Created with Sketch.</desc>
    <g id="Page-1" stroke="none" stroke-width="1" fill="none" fill-rule="evenodd">
        <g id="1---Home-1" transform="translate(-989.000000, -4390.000000)" fill="#FFFFFF">
            <g id="Group-3" transform="translate(58.000000, 3965.000000)">
                <g id="Group-10" transform="translate(0.000000, 59.000000)">
                    <g id="Group-9" transform="translate(881.000000, 0.000000)">
                        <path d="M58.4310082,366 C57.9628586,366.001643 57.5431194,366.287643 57.3723898,366.72306 L50.0787707,385.377284 L50.0787707,385.378708 C49.9407482,385.728742 49.9862809,386.124316 50.1982924,386.434486 C50.4088795,386.746101 50.7617693,386.932505 51.1373964,386.932505 L58.1450697,386.932505 L58.1450697,401.285157 C58.146494,401.780335 58.4680682,402.217158 58.9404724,402.366578 C59.4114632,402.515984 59.9265297,402.343812 60.2125483,401.9397 L75.0518558,380.764055 C75.2937477,380.41829 75.3236281,379.965811 75.1301139,379.590147 C74.9365997,379.215941 74.5510101,378.978296 74.1283932,378.975455 L65.2964955,378.975455 L69.2705945,367.51395 L69.2705945,367.512525 C69.3915404,367.16534 69.3374694,366.779739 69.1240373,366.479515 C68.9106016,366.179282 68.5634016,366 68.1948776,366 L58.4310082,366 Z M59.2121681,368.278277 L66.5983098,368.278277 L62.6242108,379.739783 C62.5032649,380.088392 62.5587565,380.472568 62.7721922,380.772793 C62.985628,381.074446 63.3314073,381.252308 63.6999313,381.252308 L71.9428173,381.252308 L60.4230298,397.679798 L60.4230298,385.798663 C60.4244541,385.495586 60.3035082,385.203895 60.0886482,384.989017 C59.8752125,384.774161 59.583526,384.654636 59.2804236,384.65606 L52.8020229,384.65606 L59.2121681,368.278277 Z" id="Fill-1"></path>
                    </g>
                </g>
            </g>
        </g>
    </g>
</svg>